REM DIRINDEX 1\2,1\3,1\4,1\5
REM DIRNAME cjc004,folder01,folder02,folder03,folder04
TITLE ""
FILE "1Q_t_1500-1509.mp3" MP3
  TRACK 01 AUDIO
    TITLE "3:cjc004_5406"
    INDEX 01 00:00:00
  TRACK 02 AUDIO
    TITLE "0:"
    INDEX 01 00:01:01
  TRACK 03 AUDIO
    TITLE "4:cjc004_5407"
    INDEX 01 00:01:24
  TRACK 04 AUDIO
    TITLE "0:"
    INDEX 01 00:02:53
  TRACK 05 AUDIO
    TITLE "5:cjc004_5408"
    INDEX 01 00:03:04
  TRACK 06 AUDIO
    TITLE "0:"
    INDEX 01 00:07:15
  TRACK 07 AUDIO
    TITLE "3:cjc004_5409"
    INDEX 01 00:07:64
  TRACK 08 AUDIO
    TITLE "0:"
    INDEX 01 00:08:73
  TRACK 09 AUDIO
    TITLE "4:cjc004_5410"
    INDEX 01 00:09:28
  TRACK 10 AUDIO
    TITLE "0:"
    INDEX 01 00:10:47
  TRACK 11 AUDIO
    TITLE "5:cjc004_5411"
    INDEX 01 00:11:01
  TRACK 12 AUDIO
    TITLE "0:"
    INDEX 01 00:15:30
  TRACK 13 AUDIO
    TITLE "3:cjc004_5412"
    INDEX 01 00:16:10
  TRACK 14 AUDIO
    TITLE "0:"
    INDEX 01 00:17:35
  TRACK 15 AUDIO
    TITLE "4:cjc004_5413"
    INDEX 01 00:17:61
  TRACK 16 AUDIO
    TITLE "0:"
    INDEX 01 00:19:48
  TRACK 17 AUDIO
    TITLE "5:cjc004_5414"
    INDEX 01 00:20:00
  TRACK 18 AUDIO
    TITLE "0:"
    INDEX 01 00:24:33
  TRACK 19 AUDIO
    TITLE "3:cjc004_5415"
    INDEX 01 00:25:15
  TRACK 20 AUDIO
    TITLE "0:"
    INDEX 01 00:26:46
  TRACK 21 AUDIO
    TITLE "4:cjc004_5416"
    INDEX 01 00:27:04
  TRACK 22 AUDIO
    TITLE "0:"
    INDEX 01 00:28:27
  TRACK 23 AUDIO
    TITLE "5:cjc004_5417"
    INDEX 01 00:28:51
  TRACK 24 AUDIO
    TITLE "0:"
    INDEX 01 00:32:50
  TRACK 25 AUDIO
    TITLE "3:cjc004_5418"
    INDEX 01 00:33:32
  TRACK 26 AUDIO
    TITLE "0:"
    INDEX 01 00:34:61
  TRACK 27 AUDIO
    TITLE "4:cjc004_5419"
    INDEX 01 00:35:10
  TRACK 28 AUDIO
    TITLE "0:"
    INDEX 01 00:36:29
  TRACK 29 AUDIO
    TITLE "5:cjc004_5420"
    INDEX 01 00:36:58
  TRACK 30 AUDIO
    TITLE "0:"
    INDEX 01 00:42:31
  TRACK 31 AUDIO
    TITLE "3:cjc004_5421"
    INDEX 01 00:43:15
  TRACK 32 AUDIO
    TITLE "0:"
    INDEX 01 00:44:12
  TRACK 33 AUDIO
    TITLE "4:cjc004_5422"
    INDEX 01 00:44:34
  TRACK 34 AUDIO
    TITLE "0:"
    INDEX 01 00:45:69
  TRACK 35 AUDIO
    TITLE "5:cjc004_5423"
    INDEX 01 00:46:21
  TRACK 36 AUDIO
    TITLE "0:"
    INDEX 01 00:50:35
  TRACK 37 AUDIO
    TITLE "3:cjc004_5424"
    INDEX 01 00:51:18
  TRACK 38 AUDIO
    TITLE "0:"
    INDEX 01 00:52:24
  TRACK 39 AUDIO
    TITLE "4:cjc004_5425"
    INDEX 01 00:52:55
  TRACK 40 AUDIO
    TITLE "0:"
    INDEX 01 00:54:01
  TRACK 41 AUDIO
    TITLE "5:cjc004_5426"
    INDEX 01 00:54:25
  TRACK 42 AUDIO
    TITLE "0:"
    INDEX 01 00:59:06
  TRACK 43 AUDIO
    TITLE "3:cjc004_5427"
    INDEX 01 00:59:55
  TRACK 44 AUDIO
    TITLE "0:"
    INDEX 01 01:00:62
  TRACK 45 AUDIO
    TITLE "4:cjc004_5428"
    INDEX 01 01:01:13
  TRACK 46 AUDIO
    TITLE "0:"
    INDEX 01 01:02:38
  TRACK 47 AUDIO
    TITLE "5:cjc004_5429"
    INDEX 01 01:02:65
  TRACK 48 AUDIO
    TITLE "0:"
    INDEX 01 01:07:64
  TRACK 49 AUDIO
    TITLE "3:cjc004_5430"
    INDEX 01 01:08:44
  TRACK 50 AUDIO
    TITLE "0:"
    INDEX 01 01:09:57
  TRACK 51 AUDIO
    TITLE "4:cjc004_5431"
    INDEX 01 01:10:06
  TRACK 52 AUDIO
    TITLE "0:"
    INDEX 01 01:11:25
  TRACK 53 AUDIO
    TITLE "5:cjc004_5432"
    INDEX 01 01:11:52
  TRACK 54 AUDIO
    TITLE "0:"
    INDEX 01 01:16:20
  TRACK 55 AUDIO
    TITLE "3:cjc004_5433"
    INDEX 01 01:16:73
  TRACK 56 AUDIO
    TITLE "0:"
    INDEX 01 01:18:25
  TRACK 57 AUDIO
    TITLE "4:cjc004_5434"
    INDEX 01 01:18:53
  TRACK 58 AUDIO
    TITLE "0:"
    INDEX 01 01:19:70
  TRACK 59 AUDIO
    TITLE "5:cjc004_5435"
    INDEX 01 01:20:22
  TRACK 60 AUDIO
    TITLE "0:"
    INDEX 01 01:26:66
